<svg id="Layer_1" data-name="Layer 1" xmlns="http://www.w3.org/2000/svg" viewBox="0 0 977.62 257.81"><title>houston_simple</title><path d="M845.15,139.32l49.74,67.87h19.27V100.44H891.84v65.72l-48.15-65.72H822.84V207.19h22.31ZM130.42,164.39h41.71v42.8h22.55V100.44H172.13V142.6H130.42V100.44H107.87V207.19h22.55ZM1003.19,26.74V284.55H25.57V26.74h977.62ZM980.76,49.91H47.89V261.38H980.76ZM406.34,208.58c27.68,0,45.11-15.83,45.11-48.12V100.31H428.78v61.16c0,17-8.42,25.58-22.19,25.58s-22.19-9-22.19-26.33V100.31H361.84v60.91c0,31.41,16.83,47.36,44.5,47.36M223.7,154v-.26c0-30.39,23-55.21,54.74-55.21s54.38,24.57,54.51,55v.13c0,30.39-23.05,55.21-54.75,55.21S223.7,184.39,223.7,154m23.53-.39c0,18.36,12.93,33.56,31.09,33.56s30.85-14.94,30.85-33.17v-.13c0-18.36-12.93-33.56-31.09-33.56s-30.85,14.94-30.85,33.17Zm276.4,34.19c-11.7,0-21.46-5.06-30.72-12.91L479.5,191.48a64.19,64.19,0,0,0,43.65,17.1c22.19,0,37.67-11.91,37.67-33.05v-.25c.37-18.62-11.46-26.34-32.31-32-17.8-4.68-22.19-7-22.19-14.06v-.25c0-5.19,4.51-9.24,13.17-9.24s17.56,3.92,26.7,10.51l11.71-17.73c-10.37-8.74-23.17-13.55-38.17-13.55-21,0-36,12.79-36,32.16v.26c0,21.14,13.41,27.1,34,32.67,17.19,4.56,20.73,7.6,20.73,13.55v.25c0,6.2-5.61,10-14.88,10M684.45,154v-.26c0-30.39,23-55.21,54.74-55.21s54.51,24.57,54.51,55v.13c0,30.39-23.05,55.21-54.75,55.21s-54.5-24.44-54.5-54.82m23.66-.39c0,18.36,12.92,33.56,31.08,33.56S770,172.24,770,154v-.13c0-18.36-12.92-33.56-31.09-33.56s-30.84,14.94-30.84,33.17ZM611.3,122.09v85.1h22.55v-85.1h31.22V100.44H580v21.65H611.3Z" transform="translate(-25.57 -26.74)"/></svg>